# xmcd CD database file
#
# Track frame offsets:
#	150
#	8314
#	17828
#	27051
#	38799
#	50006
#	55775
#	67076
#	78923
#	90990
#	100855
#	111000
#	123273
#	132543
#	140580
#	151019
#	162413
#
# Disc length: 2332 seconds
#
# Revision: 0
# Processed by: cddbd v1.4PL0 Copyright (c) Steve Scherf et al.
# Submitted via: CDex 1.50
#
DISCID=ce091a11
DTITLE=Johnny Cash - Now Here's Johnny Cash
DYEAR=1961
DGENRE=Country
TTITLE0=Sugar Time
TTITLE1=Down the Street to 301
TTITLE2=Life Goes On
TTITLE3=Port Of Lonely Hearts
TTITLE4=Cry! Cry! Cry!
TTITLE5=My Treasure
TTITLE6=Oh Lonesome Me
TTITLE7=So Doggone Lonesome
TTITLE8=You're the Nearest Thing to Heaven
TTITLE9=The Story of a Broken Heart
TTITLE10=Hey, Porter!
TTITLE11=Home of the Blues
TTITLE12=I Couldn't Keep From Crying
TTITLE13=Sugartime
TTITLE14=My Treasure
TTITLE15=Oh Lonesome Me
TTITLE16=Home of the Blues
EXTD=YEAR: 1961
EXTT0=
EXTT1=
EXTT2=
EXTT3=
EXTT4=
EXTT5=
EXTT6=
EXTT7=
EXTT8=
EXTT9=
EXTT10=
EXTT11=
EXTT12=
EXTT13=
EXTT14=
EXTT15=
EXTT16=
PLAYORDER=
